<svg id="visual" viewBox="0 0 900 600" width="900" height="600" xmlns="http://www.w3.org/2000/svg" xmlns:xlink="http://www.w3.org/1999/xlink" version="1.1"><path d="M0 399L16.7 395.8C33.3 392.7 66.7 386.3 100 389.7C133.3 393 166.7 406 200 404.7C233.3 403.3 266.7 387.7 300 387.3C333.3 387 366.7 402 400 407C433.3 412 466.7 407 500 409C533.3 411 566.7 420 600 424.2C633.3 428.3 666.7 427.7 700 427C733.3 426.3 766.7 425.7 800 414.2C833.3 402.7 866.7 380.3 883.3 369.2L900 358L900 601L883.3 601C866.7 601 833.3 601 800 601C766.7 601 733.3 601 700 601C666.7 601 633.3 601 600 601C566.7 601 533.3 601 500 601C466.7 601 433.3 601 400 601C366.7 601 333.3 601 300 601C266.7 601 233.3 601 200 601C166.7 601 133.3 601 100 601C66.7 601 33.3 601 16.7 601L0 601Z" fill="#e2eefa"></path><path d="M0 438L16.7 443.7C33.3 449.3 66.7 460.7 100 465.2C133.3 469.7 166.7 467.3 200 466.5C233.3 465.7 266.7 466.3 300 467.2C333.3 468 366.7 469 400 464.2C433.3 459.3 466.7 448.7 500 440.5C533.3 432.3 566.7 426.7 600 428.3C633.3 430 666.7 439 700 447C733.3 455 766.7 462 800 453.7C833.3 445.3 866.7 421.7 883.3 409.8L900 398L900 601L883.3 601C866.7 601 833.3 601 800 601C766.7 601 733.3 601 700 601C666.7 601 633.3 601 600 601C566.7 601 533.3 601 500 601C466.7 601 433.3 601 400 601C366.7 601 333.3 601 300 601C266.7 601 233.3 601 200 601C166.7 601 133.3 601 100 601C66.7 601 33.3 601 16.7 601L0 601Z" fill="#bbd0e3"></path><path d="M0 494L16.7 493C33.3 492 66.7 490 100 489.5C133.3 489 166.7 490 200 484.7C233.3 479.3 266.7 467.7 300 466.7C333.3 465.7 366.7 475.3 400 479.5C433.3 483.7 466.7 482.3 500 484.8C533.3 487.3 566.7 493.7 600 496.2C633.3 498.7 666.7 497.3 700 490.7C733.3 484 766.7 472 800 464.8C833.3 457.7 866.7 455.3 883.3 454.2L900 453L900 601L883.3 601C866.7 601 833.3 601 800 601C766.7 601 733.3 601 700 601C666.7 601 633.3 601 600 601C566.7 601 533.3 601 500 601C466.7 601 433.3 601 400 601C366.7 601 333.3 601 300 601C266.7 601 233.3 601 200 601C166.7 601 133.3 601 100 601C66.7 601 33.3 601 16.7 601L0 601Z" fill="#94b2cd"></path><path d="M0 523L16.7 523.8C33.3 524.7 66.7 526.3 100 524.3C133.3 522.3 166.7 516.7 200 513.8C233.3 511 266.7 511 300 512.8C333.3 514.7 366.7 518.3 400 523.3C433.3 528.3 466.7 534.7 500 532.5C533.3 530.3 566.7 519.7 600 517.8C633.3 516 666.7 523 700 526.3C733.3 529.7 766.7 529.3 800 523.7C833.3 518 866.7 507 883.3 501.5L900 496L900 601L883.3 601C866.7 601 833.3 601 800 601C766.7 601 733.3 601 700 601C666.7 601 633.3 601 600 601C566.7 601 533.3 601 500 601C466.7 601 433.3 601 400 601C366.7 601 333.3 601 300 601C266.7 601 233.3 601 200 601C166.7 601 133.3 601 100 601C66.7 601 33.3 601 16.7 601L0 601Z" fill="#6d95b7"></path><path d="M0 544L16.7 540.7C33.3 537.3 66.7 530.7 100 534.2C133.3 537.7 166.7 551.3 200 551.5C233.3 551.7 266.7 538.3 300 531.8C333.3 525.3 366.7 525.7 400 533.5C433.3 541.3 466.7 556.7 500 558C533.3 559.3 566.7 546.7 600 541.5C633.3 536.3 666.7 538.7 700 538.2C733.3 537.7 766.7 534.3 800 538.7C833.3 543 866.7 555 883.3 561L900 567L900 601L883.3 601C866.7 601 833.3 601 800 601C766.7 601 733.3 601 700 601C666.7 601 633.3 601 600 601C566.7 601 533.3 601 500 601C466.7 601 433.3 601 400 601C366.7 601 333.3 601 300 601C266.7 601 233.3 601 200 601C166.7 601 133.3 601 100 601C66.7 601 33.3 601 16.7 601L0 601Z" fill="#427aa1"></path></svg>