<svg id="visual" viewBox="0 0 900 450" width="900" height="450" xmlns="http://www.w3.org/2000/svg" xmlns:xlink="http://www.w3.org/1999/xlink" version="1.1"><path d="M0 105L13.7 115.5C27.3 126 54.7 147 82 141.7C109.3 136.3 136.7 104.7 163.8 97.8C191 91 218 109 245.2 124C272.3 139 299.7 151 327 139.8C354.3 128.7 381.7 94.3 409 91.3C436.3 88.3 463.7 116.7 491 117.3C518.3 118 545.7 91 573 79.8C600.3 68.7 627.7 73.3 654.8 80.2C682 87 709 96 736.2 96.7C763.3 97.3 790.7 89.7 818 85.8C845.3 82 872.7 82 886.3 82L900 82L900 0L886.3 0C872.7 0 845.3 0 818 0C790.7 0 763.3 0 736.2 0C709 0 682 0 654.8 0C627.7 0 600.3 0 573 0C545.7 0 518.3 0 491 0C463.7 0 436.3 0 409 0C381.7 0 354.3 0 327 0C299.7 0 272.3 0 245.2 0C218 0 191 0 163.8 0C136.7 0 109.3 0 82 0C54.7 0 27.3 0 13.7 0L0 0Z" fill="#e2eefa"></path><path d="M0 307L13.7 301.8C27.3 296.7 54.7 286.3 82 276.7C109.3 267 136.7 258 163.8 254.2C191 250.3 218 251.7 245.2 249.3C272.3 247 299.7 241 327 240.3C354.3 239.7 381.7 244.3 409 241.3C436.3 238.3 463.7 227.7 491 226.8C518.3 226 545.7 235 573 248.5C600.3 262 627.7 280 654.8 279.3C682 278.7 709 259.3 736.2 249.7C763.3 240 790.7 240 818 247.5C845.3 255 872.7 270 886.3 277.5L900 285L900 80L886.3 80C872.7 80 845.3 80 818 83.8C790.7 87.7 763.3 95.3 736.2 94.7C709 94 682 85 654.8 78.2C627.7 71.3 600.3 66.7 573 77.8C545.7 89 518.3 116 491 115.3C463.7 114.7 436.3 86.3 409 89.3C381.7 92.3 354.3 126.7 327 137.8C299.7 149 272.3 137 245.2 122C218 107 191 89 163.8 95.8C136.7 102.7 109.3 134.3 82 139.7C54.7 145 27.3 124 13.7 113.5L0 103Z" fill="#bbd0e3"></path><path d="M0 366L13.7 360.7C27.3 355.3 54.7 344.7 82 344.7C109.3 344.7 136.7 355.3 163.8 357.7C191 360 218 354 245.2 342C272.3 330 299.7 312 327 312C354.3 312 381.7 330 409 334.5C436.3 339 463.7 330 491 330.7C518.3 331.3 545.7 341.7 573 350.7C600.3 359.7 627.7 367.3 654.8 361.3C682 355.3 709 335.7 736.2 325.2C763.3 314.7 790.7 313.3 818 317.2C845.3 321 872.7 330 886.3 334.5L900 339L900 283L886.3 275.5C872.7 268 845.3 253 818 245.5C790.7 238 763.3 238 736.2 247.7C709 257.3 682 276.7 654.8 277.3C627.7 278 600.3 260 573 246.5C545.7 233 518.3 224 491 224.8C463.7 225.7 436.3 236.3 409 239.3C381.7 242.3 354.3 237.7 327 238.3C299.7 239 272.3 245 245.2 247.3C218 249.7 191 248.3 163.8 252.2C136.7 256 109.3 265 82 274.7C54.7 284.3 27.3 294.7 13.7 299.8L0 305Z" fill="#94b2cd"></path><path d="M0 411L13.7 406.5C27.3 402 54.7 393 82 394.5C109.3 396 136.7 408 163.8 406.5C191 405 218 390 245.2 381.7C272.3 373.3 299.7 371.7 327 373.2C354.3 374.7 381.7 379.3 409 377.2C436.3 375 463.7 366 491 366C518.3 366 545.7 375 573 384.7C600.3 394.3 627.7 404.7 654.8 406.2C682 407.7 709 400.3 736.2 392.8C763.3 385.3 790.7 377.7 818 375.3C845.3 373 872.7 376 886.3 377.5L900 379L900 337L886.3 332.5C872.7 328 845.3 319 818 315.2C790.7 311.3 763.3 312.7 736.2 323.2C709 333.7 682 353.3 654.8 359.3C627.7 365.3 600.3 357.7 573 348.7C545.7 339.7 518.3 329.3 491 328.7C463.7 328 436.3 337 409 332.5C381.7 328 354.3 310 327 310C299.7 310 272.3 328 245.2 340C218 352 191 358 163.8 355.7C136.7 353.3 109.3 342.7 82 342.7C54.7 342.7 27.3 353.3 13.7 358.7L0 364Z" fill="#6d95b7"></path><path d="M0 451L13.7 451C27.3 451 54.7 451 82 451C109.3 451 136.7 451 163.8 451C191 451 218 451 245.2 451C272.3 451 299.7 451 327 451C354.3 451 381.7 451 409 451C436.3 451 463.7 451 491 451C518.3 451 545.7 451 573 451C600.3 451 627.7 451 654.8 451C682 451 709 451 736.2 451C763.3 451 790.7 451 818 451C845.3 451 872.7 451 886.3 451L900 451L900 377L886.3 375.5C872.7 374 845.3 371 818 373.3C790.7 375.7 763.3 383.3 736.2 390.8C709 398.3 682 405.7 654.8 404.2C627.7 402.7 600.3 392.3 573 382.7C545.7 373 518.3 364 491 364C463.7 364 436.3 373 409 375.2C381.7 377.3 354.3 372.7 327 371.2C299.7 369.7 272.3 371.3 245.2 379.7C218 388 191 403 163.8 404.5C136.7 406 109.3 394 82 392.5C54.7 391 27.3 400 13.7 404.5L0 409Z" fill="#427aa1"></path></svg>